<?xml version="1.0" encoding="utf-8"?>
<!-- Generator: Adobe Illustrator 25.4.2, SVG Export Plug-In . SVG Version: 6.00 Build 0)  -->
<svg version="1.1" id="Capa_1" xmlns="http://www.w3.org/2000/svg" xmlns:xlink="http://www.w3.org/1999/xlink" x="0px" y="0px"
	 viewBox="0 0 171.9 178.9" style="enable-background:new 0 0 171.9 178.9;" xml:space="preserve">
<style type="text/css">
	.st0{fill:#EDBF2E;}
	.st1{fill:none;stroke:#FFFFFF;stroke-width:2.5;stroke-miterlimit:10;}
	.st2{fill:none;stroke:#FFFFFF;stroke-width:2.5517;stroke-miterlimit:10;}
</style>
<g>
	<path class="st0" d="M153,178.9H18.8C8.4,178.9,0,170.5,0,160.1V18.8C0,8.4,8.4,0,18.8,0H153c10.4,0,18.8,8.4,18.8,18.8v141.3
		C171.9,170.5,163.4,178.9,153,178.9z"/>
	<g>
		<path class="st1" d="M41.3,84.1c0,0,3.8,19.1,23.3,30.9c0,0,28.5,22.6,46.5-1.7l22.7-40.4c0,0-13.2-12.5-30.2,2.1
			c0,0-9,10.8-25.3-0.3c0,0-14.2-12.8-21.5-22.9c0,0-13.9,20.1,4.9,40.6C61.7,92.3,55.1,94,41.3,84.1z"/>
		<path class="st1" d="M64.2,61c0,0,0.2-14.5,9.6-18c0,0,12.5,24.6,24.6,35.1"/>
		<circle class="st2" cx="118.9" cy="77" r="1.7"/>
	</g>
</g>
</svg>
