<?xml version="1.0" encoding="utf-8"?>
<!-- Generator: Adobe Illustrator 25.4.2, SVG Export Plug-In . SVG Version: 6.00 Build 0)  -->
<svg version="1.1" id="Capa_1" xmlns="http://www.w3.org/2000/svg" xmlns:xlink="http://www.w3.org/1999/xlink" x="0px" y="0px"
	 viewBox="0 0 171.9 178.9" style="enable-background:new 0 0 171.9 178.9;" xml:space="preserve">
<style type="text/css">
	.st0{fill:#8CC63F;}
	.st1{fill:none;stroke:#FFFFFF;stroke-width:2.5;stroke-linecap:round;stroke-miterlimit:10;}
</style>
<g>
	<path class="st0" d="M153,178.9H18.8C8.4,178.9,0,170.5,0,160.1V18.8C0,8.4,8.4,0,18.8,0H153c10.4,0,18.8,8.4,18.8,18.8v141.3
		C171.9,170.5,163.4,178.9,153,178.9z"/>
	<g>
		<path class="st1" d="M109.6,67.6H60.1c-2.1,0-3.9-1.7-3.9-3.9v0c0-2.1,1.7-3.9,3.9-3.9h49.5c2.1,0,3.9,1.7,3.9,3.9v0
			C113.5,65.8,111.8,67.6,109.6,67.6z"/>
		<path class="st1" d="M107,68v15.1c0,12.3-10,22.3-22.3,22.3h0c-12.3,0-22.3-10-22.3-22.3V67.5"/>
		<path class="st1" d="M71.7,59.7c-0.6-1.6-0.9-3.2-0.9-5c0-7.6,6.2-13.8,13.8-13.8s13.8,6.2,13.8,13.8c0,1.7-0.3,3.3-0.9,4.8"/>
		<path class="st1" d="M105.6,135.9H64.1c-2.1,0-3.7-1.7-3.7-3.7l0,0c0-2.1,1.7-3.7,3.7-3.7h41.5c2.1,0,3.7,1.7,3.7,3.7l0,0
			C109.3,134.2,107.6,135.9,105.6,135.9z"/>
		<path class="st1" d="M78.6,105.8c-0.8,6.2-2.7,15.1-7.6,22.3"/>
		<path class="st1" d="M90.6,106.2c0.8,6.1,2.7,14.8,7.5,21.9"/>
		<line class="st1" x1="59.2" y1="53.6" x2="65" y2="53.6"/>
		<line class="st1" x1="60.6" y1="44.1" x2="67" y2="47.2"/>
		<line class="st1" x1="110.2" y1="53.6" x2="104.4" y2="53.6"/>
		<line class="st1" x1="108.7" y1="44.1" x2="102.4" y2="47.2"/>
		<line class="st1" x1="84.5" y1="74.6" x2="84.5" y2="94.5"/>
		<line class="st1" x1="76.5" y1="80.9" x2="92.6" y2="80.9"/>
	</g>
</g>
</svg>
