<?xml version="1.0" encoding="utf-8"?>
<!-- Generator: Adobe Illustrator 25.4.2, SVG Export Plug-In . SVG Version: 6.00 Build 0)  -->
<svg version="1.1" id="Capa_1" xmlns="http://www.w3.org/2000/svg" xmlns:xlink="http://www.w3.org/1999/xlink" x="0px" y="0px"
	 viewBox="0 0 171.9 178.9" style="enable-background:new 0 0 171.9 178.9;" xml:space="preserve">
<style type="text/css">
	.st0{fill:#808080;}
	.st1{fill:none;stroke:#FFFFFF;stroke-width:2.5;stroke-linecap:round;stroke-miterlimit:10;}
	.st2{fill:#FFFFFF;}
</style>
<g>
	<path class="st0" d="M153,178.9H18.8C8.4,178.9,0,170.5,0,160.1V18.8C0,8.4,8.4,0,18.8,0H153c10.4,0,18.8,8.4,18.8,18.8v141.3
		C171.9,170.5,163.4,178.9,153,178.9z"/>
	<g>
		<g>
			<path class="st1" d="M96.4,61.6l-14.1,39.3c-2.2,6.2-9,9.4-15.2,7.1l0,0c-6.2-2.2-9.4-9-7.1-15.2l14.1-39.3L96.4,61.6z"/>
			<path class="st1" d="M65.5,78.5c0,0,5.5-2.3,11.5,0.5c6,2.8,13.3-0.9,13.3-0.9"/>
			<line class="st1" x1="67.1" y1="108" x2="58.6" y2="128.1"/>
			<line class="st1" x1="47.8" y1="124.3" x2="70.3" y2="133.3"/>
			<path class="st1" d="M87.8,85.8l5.4,15.1c2.2,6.2,9,9.4,15.2,7.1l0,0c6.2-2.2,9.4-9,7.1-15.2l-14.1-39.3l-13.7,4.9"/>
			<path class="st1" d="M113.7,88.7c0,0-5.5-2.3-11.5,0.5C96.2,92,89,88.3,89,88.3"/>
			<line class="st1" x1="108.4" y1="108" x2="115.5" y2="127.1"/>
			<line class="st1" x1="127.6" y1="123.6" x2="105" y2="132.7"/>
			<line class="st1" x1="61.4" y1="36.1" x2="67.6" y2="44.7"/>
			<line class="st1" x1="53" y1="49.5" x2="62.5" y2="53.2"/>
			<line class="st1" x1="50.5" y1="64.8" x2="60.2" y2="63"/>
			<line class="st1" x1="114.7" y1="36.5" x2="108.5" y2="45.1"/>
			<line class="st1" x1="123.1" y1="50" x2="113.6" y2="53.7"/>
			<line class="st1" x1="125.6" y1="65.3" x2="115.9" y2="63.4"/>
		</g>
		<ellipse class="st2" cx="70.3" cy="85.3" rx="1.7" ry="1.6"/>
		<ellipse class="st2" cx="73.8" cy="91.3" rx="1.7" ry="1.6"/>
		<ellipse class="st2" cx="98.4" cy="96.2" rx="1.7" ry="1.6"/>
		<ellipse class="st2" cx="109.7" cy="96.2" rx="1.7" ry="1.6"/>
		<ellipse class="st2" cx="106.5" cy="101.7" rx="1.7" ry="1.6"/>
		<ellipse class="st2" cx="73.8" cy="99.4" rx="1.7" ry="1.6"/>
		<ellipse class="st2" cx="67.3" cy="95.7" rx="1.7" ry="1.6"/>
	</g>
</g>
</svg>
