<?xml version="1.0" encoding="utf-8"?>
<!-- Generator: Adobe Illustrator 24.0.1, SVG Export Plug-In . SVG Version: 6.00 Build 0)  -->
<svg version="1.1" id="Capa_1" xmlns="http://www.w3.org/2000/svg" xmlns:xlink="http://www.w3.org/1999/xlink" x="0px" y="0px"
	 viewBox="0 0 211 62.7" style="enable-background:new 0 0 211 62.7;" xml:space="preserve">
<style type="text/css">
	.st0{fill:#76E1D3;}
</style>
<g>
	<polygon class="st0" points="94.1,0.8 81.7,0.8 57.8,34.4 51.4,25.4 39,25.4 51.6,43.1 38.2,62 50.6,62 57.8,51.9 65,62 77.4,62 
		64,43.1 	"/>
	<path class="st0" d="M31.7,25.3c-2.9,0-5.3,2.4-5.3,5.3v26.2c0,2.9,2.4,5.3,5.3,5.3c2.9,0,5.3-2.4,5.3-5.3V30.6
		C37,27.7,34.6,25.3,31.7,25.3z"/>
	<path class="st0" d="M205.1,49.1c-0.6,0-2.1,0.6-4.5,1.7c-2.4,1.1-4.6,1.7-6.6,1.7c-2.3,0-4.1-0.6-5.5-1.7
		c-1.4-1.1-2.2-2.7-2.4-4.6h18.8c2,0,3.4-0.3,4.1-0.9c0.7-0.6,1.1-1.7,1.1-3.3c0-4.9-1.6-9-4.9-12.4c-3.3-3.4-7.4-5.1-12.2-5.1
		c-5,0-9.3,1.8-12.6,5.4c-3.4,3.6-5.1,8.1-5.1,13.4c0,5.3,1.7,9.8,5.2,13.3c3.5,3.5,7.8,5.3,13,5.3c4.3,0,8-0.9,11.1-2.7
		c3.1-1.8,4.7-3.9,4.7-6.1c0-1.2-0.4-2.2-1.2-2.9C207.4,49.5,206.3,49.1,205.1,49.1z M188.4,34.8c1.3-1.1,2.8-1.7,4.6-1.7
		c1.8,0,3.4,0.6,4.7,1.8c1.3,1.2,2,2.7,2.2,4.5h-13.9C186.3,37.4,187.1,35.9,188.4,34.8z"/>
	<path class="st0" d="M171.5,25.4h-2.4v-6.6c0-2.9-2.4-5.3-5.3-5.3c-2.9,0-5.3,2.4-5.3,5.3v6.6h-2.4c-2.6,0-4.7,2.1-4.7,4.7
		s2.1,4.7,4.7,4.7h2.4v22c0,2.9,2.4,5.3,5.3,5.3c2.9,0,5.3-2.4,5.3-5.3v-22h2.4c2.6,0,4.7-2.1,4.7-4.7S174.1,25.4,171.5,25.4z"/>
	<path class="st0" d="M19.2,10C10.6,9.7,6,15.2,5.8,25.3H5.8c-2.6,0-4.7,2.1-4.7,4.7c0,2.6,2.1,4.7,4.7,4.7h0v22.1
		c0,2.9,2.4,5.3,5.3,5.3s5.3-2.4,5.3-5.3V34.6h1.8c2.6,0,4.7-2.1,4.7-4.7c0-2.6-2.1-4.7-4.7-4.7h-1.8c0-3.8,0.8-4.8,2.9-4.8
		c2.9,0,5.3-2.4,5.3-5.3S22.1,10.1,19.2,10z"/>
	<path class="st0" d="M106.5,10.1c-2.9,0-5.3,2.4-5.3,5.3v11.8l0,0.5c-1.2-1-2.6-1.9-3.9-2.4c-1.4-0.5-2.8-0.7-4.5-0.7
		c-4.5,0-8.4,1.8-11.5,5.4c-3.2,3.6-4.8,8-4.8,13.2c0,5.2,1.6,9.7,4.8,13.3c3.2,3.7,7,5.5,11.5,5.5c1.7,0,3.3-0.3,4.8-0.9
		c1.3-0.6,2.8-1.7,3.9-2.8c0.7,2.2,2.6,3.7,5,3.7c2.9,0,5.3-2.4,5.3-5.3l0-41.4C111.7,12.4,109.4,10.1,106.5,10.1z M101.2,44.1
		c-0.1,2.3-0.7,4.1-1.9,5.6c-1.3,1.6-2.9,2.4-5,2.4c-2,0-3.7-0.8-5-2.5c-1.3-1.6-2-3.8-2-6.4c0-2.7,0.6-4.8,1.9-6.5
		c1.3-1.7,3-2.5,5-2.5c2.1,0,3.7,0.8,5,2.5c1.1,1.5,1.7,3.4,1.9,5.7V44.1z"/>
	<path class="st0" d="M147.3,26.2c-0.8-0.6-1.9-0.9-3-0.9c-2.2,0-4.1,1.3-4.9,3.3c-1-1.4-2.6-2.6-3.9-3.2c-1.4-0.6-3-0.9-4.8-0.9
		c-4.6,0-8.5,1.8-11.7,5.4c-3.2,3.6-4.8,8.1-4.8,13.3c0,5.3,1.5,9.8,4.6,13.4c3.1,3.6,6.9,5.4,11.4,5.4c1.8,0,3.5-0.3,5-1
		c1.5-0.7,2.8-1.7,3.9-3c0.6,2.3,2.6,4,5.1,4c2.7,0,4.9-2,5.2-4.6c0.1-0.3,0.1-0.7,0.1-1.1V30.6C149.6,28.8,148.7,27.2,147.3,26.2z
		 M137,49.4c-1.3,1.6-2.9,2.4-4.9,2.4c-2,0-3.7-0.8-5-2.4c-1.3-1.6-1.9-3.7-1.9-6.3c0-2.5,0.6-4.6,1.9-6.1c1.3-1.6,2.9-2.3,4.9-2.3
		c2,0,3.6,0.8,4.9,2.4c1.3,1.6,1.9,3.6,1.9,6.1C138.9,45.7,138.3,47.8,137,49.4z"/>
</g>
</svg>
