<?xml version="1.0" encoding="utf-8"?>
<!-- Generator: Adobe Illustrator 24.0.2, SVG Export Plug-In . SVG Version: 6.00 Build 0)  -->
<svg version="1.1" id="Capa_1" xmlns="http://www.w3.org/2000/svg" xmlns:xlink="http://www.w3.org/1999/xlink" x="0px" y="0px"
	 viewBox="0 0 303.8 299.3" style="enable-background:new 0 0 303.8 299.3;" xml:space="preserve">
<style type="text/css">
	.st0{fill:#FCF6F2;}
	.st1{fill:none;stroke:#C7D7D0;stroke-width:1.2889;stroke-miterlimit:10;}
	.st2{fill:none;stroke:#BFA881;stroke-width:3;stroke-linecap:round;stroke-miterlimit:10;}
</style>
<g>
	<g>
		
			<image style="overflow:visible;opacity:0.3;enable-background:new    ;" width="1271" height="1254" xlink:href="FA73F18D.png"  transform="matrix(0.2387 0 0 0.2387 0.2514 -1.199560e-05)">
		</image>
		<g>
			<path class="st0" d="M275.1,144.9c0-64.2-52.2-116.4-116.4-116.4c-19.8,0-38.4,5-54.8,13.7c-44,16.6-75.3,59.2-75.3,108.9
				c0,53.1,35.8,98,84.5,112c12.8,4.9,26.8,7.6,41.3,7.6c48.5,0,90.2-29.8,107.6-72.1C270.4,182.5,275.1,164.3,275.1,144.9z"/>
		</g>
	</g>
	<g>
		<path class="st1" d="M256.3,145.7c0-54.4-44.3-98.7-98.7-98.7c-16.8,0-32.6,4.2-46.4,11.6C73.9,72.8,47.4,108.8,47.4,151
			c0,45,30.3,83.1,71.6,94.9c10.9,4.1,22.7,6.4,35,6.4c41.1,0,76.4-25.3,91.2-61.1C252.3,177.6,256.3,162.1,256.3,145.7z"/>
		<path class="st1" d="M245.1,172.7c9.8-51.1-23.7-100.6-74.8-110.4c-15.7-3-31.3-1.9-45.6,2.5c-37.5,6.5-69,35.6-76.6,75.1
			c-8.1,42.2,13.5,83.4,50.1,101.9c9.5,5.8,20.1,10.1,31.7,12.3c38.6,7.4,76.2-9.9,96.6-40.9C235.6,201.9,242.2,188.1,245.1,172.7z"
			/>
		<path class="st1" d="M252.3,165.5c9.8-51.1-23.7-100.6-74.8-110.4c-15.7-3-31.3-1.9-45.6,2.5c-37.5,6.5-69,35.6-76.6,75.1
			c-8.1,42.2,13.5,83.4,50.1,101.9c9.5,5.8,20.1,10.1,31.7,12.3c38.6,7.4,76.2-9.9,96.6-40.9C242.8,194.7,249.4,180.9,252.3,165.5z"
			/>
	</g>
</g>
<path class="st2" d="M192.7,96.7l-28.6,28.6c-4.2,4.2-5.1,10.4-2.7,15.5L142.1,158l-9.1-10c0,0-17.3,10.6-31.8-11.7
	c-0.1-0.1-0.2-0.2-0.2-0.4c-14.5-22.8-0.5-30.3-0.5-30.3s13.1-9.2,33.5,8.8c0,0,13.7,11,5.4,26.5l9.6,8.8"/>
<path class="st2" d="M212.1,115.9l-28.6,28.6c-4.2,4.2-10.4,5.1-15.5,2.7l-49,55.4c0,0-7.7,9.5-15,2.5c0,0-6.6-5.5-0.4-12.9
	l27.1-24.2"/>
<line class="st2" x1="181.4" y1="133.1" x2="205.1" y2="109.4"/>
<line class="st2" x1="175.4" y1="127" x2="199" y2="103.4"/>
<path class="st2" d="M150.8,167.9l31.9,36c0,0,8.1,8.6,14.8,0.3c0,0,5.5-7.2-2.3-13.8L159,158.7"/>
</svg>
